<svg xmlns="http://www.w3.org/2000/svg" viewBox="804.669 180.5 445.652 460.138">
  <defs>
    <style>
      .cls-1 {
        fill: none;
        stroke: #fff;
        stroke-linecap: round;
        stroke-linejoin: round;
        stroke-miterlimit: 10;
        stroke-width: 2px;
      }

      .cls-2 {
        fill: #fff;
      }
    </style>
  </defs>
  <g id="Esquema" transform="translate(804.669 180.45)">
    <line id="Line_12" data-name="Line 12" class="cls-1" x1="63.917" y2="109.92" transform="translate(294.152 59.876)"/>
    <line id="Line_13" data-name="Line 13" class="cls-1" x1="34.723" y2="59.715" transform="translate(180.472 305.593)"/>
    <line id="Line_14" data-name="Line 14" class="cls-1" x1="45.118" transform="translate(341.925 238.8)"/>
    <line id="Line_15" data-name="Line 15" class="cls-1" x1="120.979" transform="translate(45.782 238.8)"/>
    <line id="Line_16" data-name="Line 16" class="cls-1" x1="62.369" y1="106.16" transform="translate(292.383 305.593)"/>
    <line id="Line_17" data-name="Line 17" class="cls-1" x1="32.733" y1="55.955" transform="translate(179.809 113.841)"/>
    <path id="Path_8" data-name="Path 8" class="cls-2" d="M240.59,83.469a5.024,5.024,0,0,1,1.99,3.981v94.881H89.312V87.45a5.33,5.33,0,0,1,1.548-3.981A4.3,4.3,0,0,1,94.4,81.7H236.83A6.6,6.6,0,0,1,240.59,83.469Zm18.357,102.179c.664,7.077-2.654,10.616-10.174,10.395H83.119c-7.52.221-10.837-3.317-10.174-10.395h77.63a5.133,5.133,0,0,0,.885,2.212,2.99,2.99,0,0,0,2.654,1.99H178q1.327,0,2.654-1.99a6.624,6.624,0,0,0,.885-2.212Zm-24.771-94H97.716V176.8h136.46Zm-75.639-5.087a1.045,1.045,0,0,0-1.106-1.106h-.664a1.106,1.106,0,0,0,0,2.212h.664C158.095,87.893,158.537,87.45,158.537,86.566Zm2.875-1.106a1.106,1.106,0,0,0,0,2.212h13.27a1.106,1.106,0,0,0,0-2.212Z" transform="translate(88.286 98.933)"/>
    <g id="Group_11" data-name="Group 11" transform="translate(396.774 211.818)">
      <path id="Path_9" data-name="Path 9" class="cls-2" d="M192.56,107.842c-.442,0-.664-.221-1.106-.442l-2.654,2.654a5.58,5.58,0,0,0,3.76,1.327,6.006,6.006,0,0,0,3.76-1.327l-2.654-2.433A1.994,1.994,0,0,1,192.56,107.842Z" transform="translate(-168.01 -81.745)"/>
      <path id="Path_10" data-name="Path 10" class="cls-2" d="M192.56,107.939c.442,0,.663.221,1.106.442l2.654-2.654a5.99,5.99,0,0,0-7.52,0l2.654,2.654A1.43,1.43,0,0,1,192.56,107.939Z" transform="translate(-168.01 -85.38)"/>
      <path id="Path_11" data-name="Path 11" class="cls-2" d="M191.639,108.86c0-.442.221-.664.442-1.106l-2.875-2.654a7.456,7.456,0,0,0-1.106,3.76,6.006,6.006,0,0,0,1.327,3.76l2.654-2.654A1.43,1.43,0,0,1,191.639,108.86Z" transform="translate(-168.859 -84.531)"/>
      <path id="Path_12" data-name="Path 12" class="cls-2" d="M191.2,107.754c.221.442.442.663.442,1.106s-.221.664-.442,1.106l2.654,2.654a5.581,5.581,0,0,0,1.327-3.76,6.006,6.006,0,0,0-1.327-3.76Z" transform="translate(-165.102 -84.531)"/>
      <path id="Path_13" data-name="Path 13" class="cls-2" d="M226.287,95.8H218.1a1.856,1.856,0,0,0-1.991,1.991v14.155a1.982,1.982,0,0,1-1.99,1.991h-1.99a9.86,9.86,0,0,0-8.183-3.981,10.49,10.49,0,0,0-8.183,3.981h-6.193A10.01,10.01,0,0,0,179.4,124.109v18.136a1.856,1.856,0,0,0,1.99,1.99h8.183a1.856,1.856,0,0,0,1.99-1.99V128.09a1.982,1.982,0,0,1,1.991-1.99h1.99a9.86,9.86,0,0,0,8.183,3.981,10.49,10.49,0,0,0,8.183-3.981H218.1a10.147,10.147,0,0,0,10.174-10.174V97.791A1.856,1.856,0,0,0,226.287,95.8ZM203.95,128.312a8.183,8.183,0,1,1,8.183-8.183A8.309,8.309,0,0,1,203.95,128.312Z" transform="translate(-179.4 -95.8)"/>
    </g>
    <g id="Group_12" data-name="Group 12" transform="translate(144.201 67.838)">
      <path id="Path_14" data-name="Path 14" class="cls-2" d="M85.547,30.7a20.347,20.347,0,1,0,20.347,20.347A20.294,20.294,0,0,0,85.547,30.7ZM98.154,51.711H88.2a2.667,2.667,0,0,1-2.654,1.769,2.555,2.555,0,0,1-2.654-2.654,2.4,2.4,0,0,1,1.769-2.433V35.123a.776.776,0,1,1,1.548,0v13.27a2.528,2.528,0,0,1,1.769,1.548h9.953C99.26,49.942,99.26,51.711,98.154,51.711Z" transform="translate(-65.2 -30.7)"/>
    </g>
    <path id="Path_15" data-name="Path 15" class="cls-2" d="M103.1,191.35a9.072,9.072,0,0,0,.221-2.433l4.2-1.327a16.836,16.836,0,0,0-.664-4.645l-4.423-.221a14.668,14.668,0,0,0-1.991-4.2l2.654-3.539a11.846,11.846,0,0,0-3.317-3.318L96.248,174.1a15.294,15.294,0,0,0-4.2-2.212v-4.423a7.858,7.858,0,0,0-2.212-.442A9.072,9.072,0,0,0,87.4,166.8l-1.548,3.981a16.837,16.837,0,0,0-4.644.663l-2.433-3.539a14.669,14.669,0,0,0-4.2,1.991l1.106,4.2a11.846,11.846,0,0,0-3.318,3.317l-4.2-1.327a25.214,25.214,0,0,0-2.212,4.2l3.539,2.654c-.221.664-.442,1.548-.664,2.212a9.072,9.072,0,0,0-.221,2.433l-4.2,1.327a16.836,16.836,0,0,0,.664,4.645l4.423.221a14.668,14.668,0,0,0,1.991,4.2l-2.654,3.539a11.846,11.846,0,0,0,3.318,3.318l3.539-2.433a15.3,15.3,0,0,0,4.2,2.212v4.423a7.857,7.857,0,0,0,2.212.442,9.071,9.071,0,0,0,2.433.221l1.548-3.981a16.836,16.836,0,0,0,4.645-.664l2.433,3.539a14.669,14.669,0,0,0,4.2-1.99l-1.106-4.2a11.846,11.846,0,0,0,3.318-3.318l4.2,1.327a25.217,25.217,0,0,0,2.212-4.2l-3.539-2.654C102.662,192.9,102.883,192.234,103.1,191.35Zm-26.1-4.644a9.327,9.327,0,1,1,7.52,10.837A9.547,9.547,0,0,1,77.007,186.705Z" transform="translate(78.032 202.046)"/>
    <g id="Group_13" data-name="Group 13" transform="translate(0 212.565)">
      <path id="Path_16" data-name="Path 16" class="cls-2" d="M13.712,1048.5c-.664,0-.885.442-.885,1.106v1.106H9.51a1.045,1.045,0,0,0-1.106,1.106v1.327h-7.3A1.045,1.045,0,0,0,0,1054.25v41.358a1.045,1.045,0,0,0,1.106,1.106H33.839a1.045,1.045,0,0,0,1.106-1.106V1054.25a1.045,1.045,0,0,0-1.106-1.106h-7.3v-1.327a1.045,1.045,0,0,0-1.106-1.106H22.117v-1.106a1.045,1.045,0,0,0-1.106-1.106Zm1.106,2.212h5.087v1.106a1.045,1.045,0,0,0,1.106,1.106h3.318v2.875H10.616v-2.875h3.318a1.045,1.045,0,0,0,1.106-1.106v-1.106Zm-8.183,11.943h21.9a1.106,1.106,0,1,1,0,2.212H6.635a1.106,1.106,0,1,1,0-2.212Zm0,8.625h21.9a1.106,1.106,0,0,1,0,2.212H6.635a1.106,1.106,0,0,1,0-2.212Zm0,8.625h21.9a1.106,1.106,0,1,1,0,2.212H6.635a1.106,1.106,0,1,1,0-2.212Zm3.318,6.414h0a1.045,1.045,0,0,1,1.106,1.106c0,.221,0,.442-.221.442l-2.875,4.866a1.269,1.269,0,0,1-1.548.442c-.221,0-.221-.221-.442-.442l-1.106-1.99a1.139,1.139,0,0,1,1.991-1.106l.221.442,1.769-3.1C9.289,1086.541,9.51,1086.32,9.953,1086.32Zm3.76,2.212H28.531a1.106,1.106,0,1,1,0,2.212h-14.6a1.045,1.045,0,0,1-1.106-1.106C12.607,1088.974,13.049,1088.531,13.712,1088.531Z" transform="translate(0 -1048.5)"/>
    </g>
    <g id="Group_14" data-name="Group 14" transform="translate(359.397 419.494)">
      <path id="Path_17" data-name="Path 17" class="cls-2" d="M193.242,189.7H164.048a1.512,1.512,0,0,0-1.548,1.548v37.6a1.512,1.512,0,0,0,1.548,1.548h29.194a1.512,1.512,0,0,0,1.548-1.548v-37.6a1.512,1.512,0,0,0-1.548-1.548Zm-25.213,29.636h3.318a.217.217,0,0,1,.221.221v5.087a.217.217,0,0,1-.221.221h-3.318a.217.217,0,0,1-.221-.221v-5.087C167.587,219.336,167.808,219.336,168.029,219.336ZM174,216.461h3.318a.217.217,0,0,1,.221.221v7.962a.217.217,0,0,1-.221.221H174a.217.217,0,0,1-.221-.221V216.9C173.78,216.682,173.78,216.461,174,216.461Zm5.971-4.423h3.318a.217.217,0,0,1,.221.221v12.385a.217.217,0,0,1-.221.221h-3.318a.217.217,0,0,1-.221-.221V212.259C179.751,212.038,179.751,212.038,179.972,212.038Zm6.193-3.539h3.318a.217.217,0,0,1,.221.221v15.7a.217.217,0,0,1-.221.221h-3.318a.217.217,0,0,1-.221-.221v-15.7C185.723,208.72,185.944,208.5,186.165,208.5ZM169.8,197.22h17.472a.885.885,0,1,1,0,1.769H170.02a.951.951,0,0,1-.885-.885c0-.442.221-.885.663-.885Zm0,2.875h17.472a.885.885,0,1,1,0,1.769H170.02a.951.951,0,0,1-.885-.885C169.135,200.537,169.356,200.316,169.8,200.095Zm0-5.972h17.472a.885.885,0,1,1,0,1.769H170.02a.951.951,0,0,1-.885-.885C169.135,194.566,169.356,194.123,169.8,194.123Z" transform="translate(-162.5 -189.7)"/>
    </g>
    <g id="Group_15" data-name="Group 15" transform="translate(339.713 0.05)">
      <path id="Path_18" data-name="Path 18" class="cls-2" d="M185.725,11.661a12.931,12.931,0,0,0-6.856-9.289l.442,6.414c0,.442-.442,1.106-.885,1.106h0a.951.951,0,0,1-.885-.885L176.878.382a16.753,16.753,0,0,0-6.635,0l-.885,8.4a1,1,0,0,1-1.991-.221l.442-6.414a12.525,12.525,0,0,0-6.856,9.289H158.3v3.981c4.866.442,9.953.664,15.039.664s9.953-.221,15.039-.664v-3.76Z" transform="translate(-147.905 -0.05)"/>
      <path id="Path_19" data-name="Path 19" class="cls-2" d="M171.4,8.842c-3.76,0-7.741-.221-11.5-.442V9.727c.221,3.76,2.875,9.51,4.866,12.828s6.635,3.1,6.635,3.1,4.645,0,6.635-3.1,4.423-8.847,4.866-12.828V8.4C179.142,8.621,175.382,8.842,171.4,8.842Z" transform="translate(-145.966 10.067)"/>
      <path id="Path_20" data-name="Path 20" class="cls-2" d="M161.562,16.3c-.221,0-.442.221-.663.221-2.875.885-4.866,3.539-5.972,6.414a30.9,30.9,0,0,0-1.327,5.308v.885a2.216,2.216,0,0,0,2.212,2.212h5.972L161.562,16.3Z" transform="translate(-153.6 19.64)"/>
      <path id="Path_21" data-name="Path 21" class="cls-2" d="M184.271,15.964q-1.991-.332-3.318-.664a.217.217,0,0,1-.221.221c-2.654,4.423-8.4,4.423-8.847,4.423h0c-.664,0-6.193-.221-8.847-4.423a.217.217,0,0,0-.221-.221q-1.327.332-3.318.664V32.33h24.771Z" transform="translate(-146.451 18.428)"/>
      <path id="Path_22" data-name="Path 22" class="cls-2" d="M181.062,28.243a30.9,30.9,0,0,0-1.327-5.308c-1.106-2.875-3.1-5.529-5.972-6.414-.221,0-.442-.221-.663-.221V31.118h5.972a2.09,2.09,0,0,0,2.212-2.212A.812.812,0,0,0,181.062,28.243Z" transform="translate(-129.972 19.64)"/>
    </g>
  </g>
</svg>
