<svg xmlns="http://www.w3.org/2000/svg" viewBox="117 2779 100 99"><defs><style>.a{fill:rgba(255,255,255,0);}.b{fill:#df8026;}.c{fill:#979797;}</style></defs><g transform="translate(133.333 2793)"><rect class="a" width="100" height="99" transform="translate(-16.333 -14)"/><path class="b" d="M13.748,9.3h-6A1.986,1.986,0,0,0,5.9,11.147v6.232a1.821,1.821,0,0,0,1.847,1.847h6.232a1.986,1.986,0,0,0,1.847-1.847V11.147A2.035,2.035,0,0,0,13.748,9.3Zm.923,8.079a.612.612,0,0,1-.692.692H7.747a.612.612,0,0,1-.692-.692V11.147a.612.612,0,0,1,.692-.692h6.232a.612.612,0,0,1,.692.692ZM28.289,9.3H22.057a1.986,1.986,0,0,0-1.847,1.847v6.232a1.821,1.821,0,0,0,1.847,1.847h6.232a1.986,1.986,0,0,0,1.847-1.847V11.147A1.986,1.986,0,0,0,28.289,9.3Zm.692,8.079a.612.612,0,0,1-.692.692H22.057a.612.612,0,0,1-.692-.692V11.147a.612.612,0,0,1,.692-.692h6.232a.612.612,0,0,1,.692.692ZM42.6,9.3H36.368a1.986,1.986,0,0,0-1.847,1.847v6.232a1.821,1.821,0,0,0,1.847,1.847H42.6a1.986,1.986,0,0,0,1.847-1.847V11.147C44.677,10.223,43.754,9.3,42.6,9.3Zm.923,8.079a.612.612,0,0,1-.692.692H36.6a.612.612,0,0,1-.692-.692V11.147a.612.612,0,0,1,.692-.692h6.232a.612.612,0,0,1,.692.692ZM13.748,23.841h-6A1.986,1.986,0,0,0,5.9,25.688V31.92a1.821,1.821,0,0,0,1.847,1.847h6.232a1.986,1.986,0,0,0,1.847-1.847V25.688A2.035,2.035,0,0,0,13.748,23.841Zm.923,8.309a.612.612,0,0,1-.692.692H7.747a.612.612,0,0,1-.692-.692V25.919a.612.612,0,0,1,.692-.692h6.232a.612.612,0,0,1,.692.692Zm-.923,6.463h-6A1.986,1.986,0,0,0,5.9,40.46v6.232a1.821,1.821,0,0,0,1.847,1.847h6.232a1.986,1.986,0,0,0,1.847-1.847V40.46A2.035,2.035,0,0,0,13.748,38.614Zm.923,8.079a.612.612,0,0,1-.692.692H7.747a.612.612,0,0,1-.692-.692V40.46a.612.612,0,0,1,.692-.692h6.232a.612.612,0,0,1,.692.692ZM28.289,23.841H22.057a1.986,1.986,0,0,0-1.847,1.847V31.92a1.821,1.821,0,0,0,1.847,1.847h6.232a1.986,1.986,0,0,0,1.847-1.847V25.688A1.986,1.986,0,0,0,28.289,23.841Zm.692,8.309a.612.612,0,0,1-.692.692H22.057a.612.612,0,0,1-.692-.692V25.919a.612.612,0,0,1,.692-.692h6.232a.612.612,0,0,1,.692.692ZM42.6,23.841H36.368a1.986,1.986,0,0,0-1.847,1.847V31.92a1.821,1.821,0,0,0,1.847,1.847H42.6a1.986,1.986,0,0,0,1.847-1.847V25.688C44.677,24.765,43.754,23.841,42.6,23.841Zm.923,8.309a.612.612,0,0,1-.692.692H36.6a.612.612,0,0,1-.692-.692V25.919a.612.612,0,0,1,.692-.692h6.232a.612.612,0,0,1,.692.692ZM28.289,38.614H22.057a1.986,1.986,0,0,0-1.847,1.847v6.232a1.821,1.821,0,0,0,1.847,1.847h6.232a1.986,1.986,0,0,0,1.847-1.847V40.46A1.986,1.986,0,0,0,28.289,38.614Zm.692,8.079a.612.612,0,0,1-.692.692H22.057a.612.612,0,0,1-.692-.692V40.46a.612.612,0,0,1,.692-.692h6.232a.612.612,0,0,1,.692.692Z" transform="translate(6.564 10.55)"/><path class="c" d="M48.972,64.867h0L4.655,64.636a2.069,2.069,0,0,1-2.077-2.077V15.7H61.667V51.249H61.9a4.5,4.5,0,0,1,1.847.231V8.548a4.34,4.34,0,0,0-4.155-4.386h-9V1.854a1.154,1.154,0,0,0-2.308,0V4.393H41.816V1.854a1.154,1.154,0,0,0-2.308,0V4.393H24.043V1.854A1.09,1.09,0,0,0,22.889.7c-.692,0-.923.462-.923,1.154V4.393H15.5V1.854a1.154,1.154,0,0,0-2.308,0V4.393H4.655A4.194,4.194,0,0,0,.5,8.779V62.79a4.34,4.34,0,0,0,4.155,4.386H48.972ZM2.808,8.548A2.069,2.069,0,0,1,4.886,6.47h8.309V8.548a1.154,1.154,0,0,0,2.308,0V6.47h6.463V8.548a1.154,1.154,0,0,0,2.308,0V6.47H39.739V8.548a1.154,1.154,0,0,0,2.308,0V6.47H48.51V8.548a1.154,1.154,0,0,0,2.308,0V6.47h9A2.069,2.069,0,0,1,61.9,8.548v4.847H2.808Z" transform="translate(-0.5 -0.7)"/><path class="b" d="M35.049,50.46A14.082,14.082,0,1,1,48.9,36.38,13.94,13.94,0,0,1,35.049,50.46Zm0-26.775A12.928,12.928,0,1,0,47.744,36.611,12.857,12.857,0,0,0,35.049,23.685Z" transform="translate(26.579 27.556)"/><path class="b" d="M31.886,32.509h0V28.124a10.882,10.882,0,0,1,3.462,1.385L36.964,27.2a10.533,10.533,0,0,0-4.847-1.847V24.2H30.27v1.154a4.873,4.873,0,0,0-3.693,1.385A4.7,4.7,0,0,0,25.192,30.2a3.987,3.987,0,0,0,1.154,3,10.54,10.54,0,0,0,3.924,1.616v4.616a8.827,8.827,0,0,1-4.155-2.077L24.5,39.434a9.385,9.385,0,0,0,5.77,2.539v1.847h1.616V42.2a5.824,5.824,0,0,0,3.924-1.385,4.7,4.7,0,0,0,1.385-3.462,4.566,4.566,0,0,0-1.154-3.231A17.334,17.334,0,0,0,31.886,32.509Zm-1.616-.462a6.767,6.767,0,0,1-1.847-.923,1.763,1.763,0,0,1-.462-1.154,2,2,0,0,1,.692-1.385c.462-.462.923-.462,1.616-.692ZM33.5,38.972a2.272,2.272,0,0,1-1.847.692V35.279A4.42,4.42,0,0,1,33.5,36.2a1.951,1.951,0,0,1,.462,1.385A1.027,1.027,0,0,1,33.5,38.972Z" transform="translate(30.896 30.042)"/></g></svg>