<svg xmlns="http://www.w3.org/2000/svg" viewBox="892 2542 100 99"><defs><style>.a{fill:rgba(255,255,255,0);}.b{fill:#df8026;}.c{fill:#979797;}</style></defs><g transform="translate(911.987 2553)"><rect class="a" width="100" height="99" transform="translate(-19.987 -11)"/><g transform="translate(2.308 2.308)"><path class="b" d="M12.256,2.1H10.64L2.1,10.64v1.616Z" transform="translate(-2.1 -2.1)"/><path class="b" d="M22.643,2.1H20.8L2.1,21.027v1.616Z" transform="translate(-2.1 -2.1)"/><path class="b" d="M2.1,45.9v1.154H57.5V45.9h-8.54l8.54-8.54V35.745L47.34,45.9H38.569L57.5,27.2V25.358L36.953,45.9h-8.54L57.5,16.818V15.2L26.8,45.9h-8.54L54.957,8.97l-.692-.692L16.642,45.9H7.87L49.879,3.892,49.187,3.2,6.255,45.9Z" transform="translate(-2.1 -0.661)"/><path class="b" d="M42.955,2.1H41.339L2.1,41.339v1.616Z" transform="translate(-2.1 -2.1)"/><path class="b" d="M32.8,2.1H31.183L2.1,31.183V32.8Z" transform="translate(-2.1 -2.1)"/></g><path class="b" d="M12.478,32.848h0c0,.923,0,1.616-.231,1.847a1.763,1.763,0,0,1-1.154.462,1.269,1.269,0,0,1-1.154-.692c-.231-.231-.231-.692-.231-1.385L7.4,33.309a3.679,3.679,0,0,0,.923,2.77A3.153,3.153,0,0,0,10.862,37a3.446,3.446,0,0,0,2.308-.692,2.671,2.671,0,0,0,1.154-1.616,5.79,5.79,0,0,0,.231-2.308V25H12.247v7.848Zm11.31-7.386c-.462,0-1.385-.231-2.77-.231H17.325V36.772h2.308V32.386h1.616a5.79,5.79,0,0,0,2.308-.231,1.763,1.763,0,0,0,1.154-.462,2.3,2.3,0,0,0,.923-1.154,4.348,4.348,0,0,0,.462-1.847,3.9,3.9,0,0,0-.692-2.308A10.036,10.036,0,0,0,23.788,25.462Zm-.462,4.386c-.231.231-.462.462-.692.462-.231.231-.923.231-1.847.231H19.4V27.308h2.77a1.2,1.2,0,0,1,.923.462,1.763,1.763,0,0,1,.462,1.154C23.557,29.386,23.557,29.616,23.326,29.847Zm9.925.923v1.847h2.77v1.616c-.462.231-.692.462-1.154.692a2.928,2.928,0,0,1-1.385.231,2.676,2.676,0,0,1-2.308-.923,3.917,3.917,0,0,1-.923-3c0-1.385.231-2.308.923-2.77a3.153,3.153,0,0,1,2.539-.923A3.336,3.336,0,0,1,35.329,28a2.12,2.12,0,0,1,.923,1.385l2.308-.462a3.784,3.784,0,0,0-1.616-2.539,5.159,5.159,0,0,0-3.462-.923,8.609,8.609,0,0,0-2.77.462A6.547,6.547,0,0,0,28.4,28a5.153,5.153,0,0,0-.692,3.231,6.389,6.389,0,0,0,.692,3,4.529,4.529,0,0,0,2.077,2.077A6.7,6.7,0,0,0,33.713,37a11.586,11.586,0,0,0,2.77-.462,8.3,8.3,0,0,0,2.077-1.154V30.77H33.252Z" transform="translate(7.142 30.165)"/><g transform="translate(0 0)"><path class="c" d="M61.113,77.27H1.1V1.1H48.879L61.113,13.333V77.27Zm-57.7-2.308H58.8v-60.7L47.956,3.408H3.408Z" transform="translate(-1.1 -1.1)"/></g></g></svg>