<svg xmlns="http://www.w3.org/2000/svg" viewBox="273.997 6067.6 79.003 31.118"><defs><style>.a{fill:#fff;}</style></defs><g transform="translate(267.136 6058.615)"><path class="a" d="M38.7,30.467h4.391v5.752a1.136,1.136,0,0,0,1.175,1.175h2.412a1.257,1.257,0,0,0,1.237-1.175V26.2h4.453V46.61H47.915V42.095a1.228,1.228,0,0,0-1.237-1.175H44.266a1.228,1.228,0,0,0-1.175,1.237v4.515H38.7Z" transform="translate(-12.147 -6.568)"/><path class="a" d="M64.262,36.2H75.333v3.031H69.766a1.15,1.15,0,0,0-1.113,1.113,1.109,1.109,0,0,0,1.113,1.113h4.206v2.907H70.014a1.422,1.422,0,0,0,0,2.845h6v3.216H64.2V36.2Z" transform="translate(-21.876 -10.383)"/><path class="a" d="M98.984,48.26,96.7,44.055c-.062-.062.8-.247,1.113-.433A4.264,4.264,0,0,0,99.169,42.2a4.15,4.15,0,0,0,.495-2.041,4,4,0,0,0-.68-2.288,3.328,3.328,0,0,0-1.732-1.3A9.723,9.723,0,0,0,94.16,36.2H86.8V50.425h4.453V45.91a1.017,1.017,0,0,1,1.855-.495l.371.68,2.35,4.329H100.1Zm-5.071-6.8h-2.35a.584.584,0,0,1-.618-.618V39.6c0-.309.309-.557.68-.618h2.288A1.241,1.241,0,1,1,93.912,41.457Z" transform="translate(-30.499 -10.383)"/><path class="a" d="M109.7,50.425,114.9,36.2h4.824L125.1,50.425h-4.267c-.186-.495-.371-1.051-.557-1.546a1.189,1.189,0,0,0-1.113-.8h-3.34a1.292,1.292,0,0,0-1.113.742c-.186.495-.371,1.051-.557,1.608Zm9.03-6.37-1.113-3.649c-.062-.247-.495-.309-.557,0l-1.113,3.649a.37.37,0,0,0,.371.495h2.041C118.606,44.549,118.853,44.364,118.73,44.055Z" transform="translate(-39.236 -10.383)"/><path class="a" d="M7.195,36.764l3.031,3.216h1.732a39.346,39.346,0,0,1,9.389-13.6c12.493-11.816,34-16.932,64.147-15.528-42.675-7.3-68.712,8.1-78.36,24.12A1.473,1.473,0,0,0,7.195,36.764Z" transform="translate(0 0)"/></g></svg>