<svg xmlns="http://www.w3.org/2000/svg" viewBox="114.909 22.995 157.418 62.005">
  <defs>
    <style>
      .cls-1 {
        fill: #f69620;
      }
    </style>
  </defs>
  <g id="logotipo_hera_2017" transform="translate(-120.053 -378.691)">
    <path id="Path_62" data-name="Path 62" d="M266.8,427.4h8.75v11.461a2.264,2.264,0,0,0,2.341,2.341H282.7a2.505,2.505,0,0,0,2.465-2.341V418.9h8.873v40.668h-8.873v-9a2.447,2.447,0,0,0-2.465-2.341h-4.806a2.447,2.447,0,0,0-2.341,2.465v9H266.8Z" transform="translate(7.398 4)"/>
    <path id="Path_63" data-name="Path 63" d="M292.423,428.9h22.059v6.039H303.391a2.291,2.291,0,0,0-2.218,2.218,2.209,2.209,0,0,0,2.218,2.218h8.38v5.792h-7.887a2.834,2.834,0,0,0,0,5.669h11.954v6.408H292.3V428.9h.123Z" transform="translate(13.323 6.323)"/>
    <path id="Path_64" data-name="Path 64" d="M339.177,452.931l-4.56-8.38c-.123-.123,1.6-.493,2.218-.863a8.5,8.5,0,0,0,2.711-2.834,8.27,8.27,0,0,0,.986-4.067,7.969,7.969,0,0,0-1.356-4.56,6.631,6.631,0,0,0-3.451-2.588,19.372,19.372,0,0,0-6.162-.739H314.9v28.344h8.873v-9a2.026,2.026,0,0,1,3.7-.986l.739,1.356,4.683,8.626h8.5Zm-10.105-13.556h-4.683a1.164,1.164,0,0,1-1.232-1.232v-2.465c0-.616.616-1.109,1.356-1.232h4.56C332.646,434.569,332.646,439.252,329.072,439.375Z" transform="translate(18.574 6.323)"/>
    <path id="Path_65" data-name="Path 65" d="M337.8,457.244,348.152,428.9h9.612l10.721,28.344h-8.5c-.37-.986-.739-2.1-1.109-3.081a2.368,2.368,0,0,0-2.218-1.6H350a2.575,2.575,0,0,0-2.218,1.479c-.37.986-.739,2.1-1.109,3.2Zm17.992-12.693-2.218-7.271c-.123-.493-.986-.616-1.109,0l-2.218,7.271a.737.737,0,0,0,.739.986h4.067C355.546,445.537,356.039,445.167,355.792,444.551Z" transform="translate(23.895 6.323)"/>
    <path id="Path_66" data-name="Path 66" class="cls-1" d="M235.625,457.036l6.039,6.408h3.451c17.869-42.763,67.163-61.741,146.527-58.044-85.032-14.542-136.914,16.144-156.139,48.062C234.762,455.064,234.762,455.8,235.625,457.036Z" transform="translate(0 0)"/>
  </g>
</svg>
