<svg xmlns="http://www.w3.org/2000/svg" viewBox="995 1782 170 135"><defs><style>.a{fill:rgba(204,58,58,0);}.b{fill:#e17e05;}.c{fill:#999;}</style></defs><g transform="translate(1026.317 1793.032)"><rect class="a" width="170" height="135" transform="translate(-31.317 -11.032)"/><path class="b" d="M49.568,108.9a10.168,10.168,0,1,0,10.168,10.168A10.232,10.232,0,0,0,49.568,108.9Zm0,16.129a6.048,6.048,0,1,1,6.048-6.048A6.177,6.177,0,0,1,49.568,125.029Z" transform="translate(-11.349 -14.347)"/><path class="b" d="M17.568,108.9a10.168,10.168,0,1,0,10.168,10.168A10.408,10.408,0,0,0,17.568,108.9Zm0,16.129a6.048,6.048,0,0,1,0-12.1,6.048,6.048,0,0,1,0,12.1Z" transform="translate(-7.4 -14.347)"/><path class="b" d="M115.768,108.9a10.168,10.168,0,1,0,10.168,10.168A10.232,10.232,0,0,0,115.768,108.9Zm0,16.129a6.048,6.048,0,1,1,6.048-6.048A6.177,6.177,0,0,1,115.768,125.029Z" transform="translate(-19.52 -14.347)"/><path class="b" d="M83.568,108.9a10.168,10.168,0,1,0,10.168,10.168A10.232,10.232,0,0,0,83.568,108.9Zm0,16.129a6.048,6.048,0,1,1,6.048-6.048A6.06,6.06,0,0,1,83.568,125.029Z" transform="translate(-15.546 -14.347)"/><path class="c" d="M98.4,69.29H81.918a4.9,4.9,0,0,1-4.909-4.909V61.488h8.152c10.607,0,19.109-7.977,19.109-17.97A18.315,18.315,0,0,0,90.859,26.337H90.6v-.351c-.614-9.467-8.853-16.48-18.934-16.48a15.252,15.252,0,0,0-3.945.526h-.351l-.175-.175A21.277,21.277,0,0,0,29.323,27.652V28l-.351.175a17.451,17.451,0,0,0-9.467,15.691c0,9.993,8.678,17.97,19.109,17.97h8.5v2.805A5.486,5.486,0,0,1,41.858,69.2H25.378A8.755,8.755,0,0,0,16.7,77.88V91.73h3.769V77.793a4.9,4.9,0,0,1,4.909-4.909h16.48a8.755,8.755,0,0,0,8.678-8.678V61.488h9.292V79.283h-6.4a8.755,8.755,0,0,0-8.678,8.678V91.73h3.594V88.487a4.9,4.9,0,0,1,4.909-4.909h16.48a4.9,4.9,0,0,1,4.909,4.909V91.73h3.769V88.312a8.755,8.755,0,0,0-8.678-8.678H63.509V61.488H72.8v2.805a8.755,8.755,0,0,0,8.678,8.678h16.48a4.9,4.9,0,0,1,4.909,4.909V91.73h4.12V77.968A8.623,8.623,0,0,0,98.4,69.29ZM75.431,39.4A1.841,1.841,0,0,0,73.5,41.327v16.3H64.123V41.415a1.928,1.928,0,1,0-3.857,0v16.3H50.887v-16.3a1.928,1.928,0,1,0-3.857,0v16.3H38.352v-.175c-8.152-.175-14.9-6.574-14.9-14.2a14.609,14.609,0,0,1,9.116-13.061,2.131,2.131,0,0,0,1.14-2.454A17.591,17.591,0,0,1,65.263,12.663a1.666,1.666,0,0,0,2.1.789,17.376,17.376,0,0,1,4.558-.614c8.328,0,15.165,6.4,15.165,14.2v.526a1.958,1.958,0,0,0,1.666,1.928c7.013,1.315,12.1,7.188,12.1,13.85,0,7.8-6.837,14.2-15.165,14.2H77.535v-16.3A2.169,2.169,0,0,0,75.431,39.4Z" transform="translate(-8.548 -1.034)"/><rect class="c" width="28.752" height="6.837" transform="translate(39.183 53.267)"/></g></svg>