<svg xmlns="http://www.w3.org/2000/svg" viewBox="208 1782 170 135"><defs><style>.a{fill:rgba(204,58,58,0);}.b{fill:#999;}.c{fill:#e17e05;}.d{fill:#b2b2b2;}</style></defs><g transform="translate(242 1804.491)"><rect class="a" width="170" height="135" transform="translate(-34 -22.491)"/><path class="b" d="M98.743,35.044a13.251,13.251,0,0,1-2.053,3.345v.152a43.124,43.124,0,0,1,3.953,18.778A46.238,46.238,0,0,1,49.48,103.237C28.5,101.185,11.392,84.307,8.5,63.325A46.416,46.416,0,0,1,52.977,11.1c.608-1.14,1.292-2.2,2.053-3.5h-.988C25.837,7.6,2.65,31.927,4.854,60.664a49.628,49.628,0,0,0,99.134-3.345A50.282,50.282,0,0,0,98.743,35.044Z" transform="translate(-4.709 -3.301)"/><path class="c" d="M111.74,18.484A20.253,20.253,0,0,0,88.1,2.291C78.594,3.963,71.6,12.4,71.6,23.045a18.484,18.484,0,0,0,3.8,10.8c4.942,6.994,9.883,13.988,14.9,21.286.76,1.292,2.053,1.292,3.041,0,5.094-6.994,10.035-14.14,15.129-21.286A19.033,19.033,0,0,0,111.74,18.484ZM91.746,36.729a14.748,14.748,0,1,1,14.748-14.748A14.714,14.714,0,0,1,91.746,36.729Z" transform="translate(-20.747 -1.945)"/><rect class="c" width="4.257" height="3.801" transform="translate(65.753 24.749)"/><rect class="c" width="4.257" height="3.801" transform="translate(71.987 24.749)"/><rect class="c" width="4.257" height="3.801" transform="translate(65.753 19.2)"/><path class="c" d="M85.786,24.155c.3,0,.456-.152.608-.456l.3-.152c2.737-2.053,5.246-3.953,7.982-6.006a.149.149,0,0,0,.152.152.471.471,0,0,1,.3.152c1.14.76,2.2,1.749,3.5,2.737l2.053,1.749c.76.608,1.6,1.292,2.509,1.9a1.434,1.434,0,0,0,1.14.456,1.53,1.53,0,0,0,1.444-1.14,1.965,1.965,0,0,0-.608-1.6l-9.351-6.994a1.383,1.383,0,0,0-2.053,0l-3.345,2.737V15.64H86.774V20.2a.531.531,0,0,1-.152.3,8.3,8.3,0,0,1-1.292.988,2.682,2.682,0,0,1-.988.608,1.309,1.309,0,0,0-.3,1.749,1.285,1.285,0,0,0,1.292.608h.456S85.786,24.155,85.786,24.155Z" transform="translate(-23.681 -4.955)"/><rect class="c" width="4.257" height="3.801" transform="translate(71.987 19.2)"/><path class="d" d="M119.6,72.7a1.478,1.478,0,0,0-1.6-1.6H106.757c-.608.988-1.292,1.9-2.053,3.041-.152.152-.152.3-.3.3h13.836A1.827,1.827,0,0,0,119.6,72.7Z" transform="translate(-28.612 -18.526)"/><path class="b" d="M87.19,85.935c-3.5-1.14-6.69-2.2-9.5-3.193a78.123,78.123,0,0,0,3.8-18.93A5.673,5.673,0,0,1,78.3,64.8h-.152A73.036,73.036,0,0,1,74.494,81.83c-6.234-1.749-11.1-3.041-15.737-3.193V62.444H73.886c-.152-.152-.152-.3-.3-.3l-1.9-3.041H58.757V42.906H60.05a23.981,23.981,0,0,1-1.444-2.053,41.979,41.979,0,0,1-3.193-5.7v4.637c-4.637-.152-9.2-1.292-15.433-3.193,1.444-4.105,3.345-8.591,5.55-13.38a1.548,1.548,0,0,0-2.813-1.292c-2.2,4.942-4.257,9.351-5.7,13.684-2.737-.76-5.7-1.749-9.047-3.041A1.611,1.611,0,1,0,26.9,35.608c3.345,1.14,6.234,2.053,9.047,3.041-2.2,7.3-3.649,13.836-3.649,20.526H17.1a1.6,1.6,0,0,0,0,3.193H32.225a72.848,72.848,0,0,0,3.953,20.374c-2.889.988-5.854,1.9-9.351,3.345a1.712,1.712,0,0,0-.988,2.053,1.55,1.55,0,0,0,1.444,1.14.559.559,0,0,0,.456-.152c3.5-1.292,6.538-2.2,9.351-3.345,1.444,4.105,3.345,8.591,5.4,13.38a1.559,1.559,0,0,0,1.444.988.914.914,0,0,0,.608-.152,1.531,1.531,0,0,0,.76-2.053c-2.053-4.637-3.8-8.895-5.246-12.848,5.854-1.749,10.491-2.889,15.129-3.041v18.778a1.6,1.6,0,0,0,3.193,0V82.21c4.485.152,8.895,1.14,14.748,3.041C71.681,89.2,69.933,93.537,67.88,98.1c-.3.608.152,1.6,1.14,2.053a.914.914,0,0,0,.608.152,1.521,1.521,0,0,0,1.444-.988c2.053-4.789,3.953-9.047,5.4-13.38,2.889.988,6.006,1.9,9.5,3.193a1.641,1.641,0,0,0,2.053-.988A1.739,1.739,0,0,0,87.19,85.935ZM38.915,39.409c6.538,1.9,11.632,3.193,16.345,3.345l.152,16.193H35.266A62.515,62.515,0,0,1,38.915,39.409Zm16.5,39.228A54.847,54.847,0,0,0,39.371,81.83c-2.2-6.842-3.649-13.152-3.8-19.386H55.564Z" transform="translate(-7.296 -6.525)"/></g></svg>