<svg xmlns="http://www.w3.org/2000/svg" viewBox="598 1782 170 135"><defs><style>.a{fill:none;}.b{fill:#999;}.c{fill:#e17e05;}</style></defs><g transform="translate(624.808 1792.156)"><rect class="a" width="170" height="135" transform="translate(-26.808 -10.156)"/><path class="b" d="M92.981,56.68V36.519H99.2a9.8,9.8,0,0,1,9.818,9.818v34.1h4.208V45.986a13.449,13.449,0,0,0-13.5-13.5H92.806V13.2A7.708,7.708,0,0,0,85,5.4H41.526a7.708,7.708,0,0,0-7.8,7.8V32.486H26.8a13.449,13.449,0,0,0-13.5,13.5v34.45h4.383V46.161A9.8,9.8,0,0,1,27.5,36.343h5.961V56.68a7.708,7.708,0,0,0,7.8,7.8H60.548v.175h4.558v-.088H85.092A7.8,7.8,0,0,0,92.981,56.68Zm-51.1-44.355a2.79,2.79,0,0,1,2.717-2.717H82.112a2.79,2.79,0,0,1,2.717,2.717V27.577H41.876ZM88.511,57.118a2.79,2.79,0,0,1-2.717,2.717H41a2.79,2.79,0,0,1-2.717-2.717V31.96H88.511V57.118Z" transform="translate(-4.271 -5.4)"/><path class="c" d="M21.408,96H6.506A3.517,3.517,0,0,0,3,99.506v15.778a3.517,3.517,0,0,0,3.506,3.506h14.9a3.517,3.517,0,0,0,3.506-3.506V99.506A3.517,3.517,0,0,0,21.408,96Zm0,17.356a1.946,1.946,0,0,1-1.928,1.928H8.435a1.946,1.946,0,0,1-1.928-1.928V101.435a1.946,1.946,0,0,1,1.928-1.928H19.48a1.946,1.946,0,0,1,1.928,1.928Z" transform="translate(-3 -16.582)"/><path class="c" d="M75.408,111h-14.9A3.517,3.517,0,0,0,57,114.506v15.778a3.517,3.517,0,0,0,3.506,3.506h14.9a3.517,3.517,0,0,0,3.506-3.506V114.506A3.517,3.517,0,0,0,75.408,111Zm0,17.356a1.946,1.946,0,0,1-1.928,1.928H62.435a1.946,1.946,0,0,1-1.928-1.928V116.435a1.946,1.946,0,0,1,1.928-1.928H73.48a1.946,1.946,0,0,1,1.928,1.928Z" transform="translate(-9.665 -18.433)"/><g transform="translate(56.364 56.627)"><rect class="b" width="4.383" height="31.557"/></g><path class="c" d="M130.408,96h-14.9A3.517,3.517,0,0,0,112,99.506v15.778a3.517,3.517,0,0,0,3.506,3.506h14.9a3.517,3.517,0,0,0,3.506-3.506V99.506A3.517,3.517,0,0,0,130.408,96Zm0,17.356a1.946,1.946,0,0,1-1.928,1.928H117.435a1.946,1.946,0,0,1-1.928-1.928V101.435a1.946,1.946,0,0,1,1.928-1.928H128.48a1.946,1.946,0,0,1,1.928,1.928Z" transform="translate(-16.453 -16.582)"/></g></svg>