<svg xmlns="http://www.w3.org/2000/svg" viewBox="892 3014 100 99"><defs><style>.a{fill:#979797;}.b{fill:#df8026;}.c{fill:rgba(255,255,255,0);}</style></defs><g transform="translate(911.818 3025)"><path class="a" d="M61.113,77.27H1.1V1.1H48.879L61.113,13.333V77.27Zm-57.7-2.308H58.8v-60.7L47.956,3.408H3.408Z" transform="translate(-1.1 -1.1)"/><path class="a" d="M14.671,22.633a.5.5,0,0,0,.462-.462V17.094H34.291v5.078a.462.462,0,0,0,.923,0V16.4a.5.5,0,0,0-.462-.462H25.289V10.862a.462.462,0,0,0-.923,0V15.94H14.671a.5.5,0,0,0-.462.462v5.54C13.979,22.4,14.44,22.633,14.671,22.633Zm8.309,14.311H15.133V31.866a.462.462,0,1,0-.923,0v5.078H6.362a.5.5,0,0,0-.462.462v5.54a.5.5,0,0,0,.462.462.5.5,0,0,0,.462-.462V37.867H22.288v5.078a.462.462,0,1,0,.923,0v-5.54C23.673,37.406,23.442,36.944,22.981,36.944Zm20.312,0H35.445V31.866a.462.462,0,0,0-.923,0v5.54a.5.5,0,0,0,.462.462h7.848v5.078a.462.462,0,0,0,.923,0v-5.54C43.985,37.406,43.523,36.944,43.292,36.944Z" transform="translate(5.179 11.066)"/><path class="b" d="M28.828,48.67H22.6a1.821,1.821,0,0,0-1.847,1.847v6.232A1.821,1.821,0,0,0,22.6,58.6h6.232a1.821,1.821,0,0,0,1.847-1.847V50.517A1.821,1.821,0,0,0,28.828,48.67Zm.692,8.079a.612.612,0,0,1-.692.692H22.6a.612.612,0,0,1-.692-.692V50.517a.612.612,0,0,1,.692-.692h6.232a.612.612,0,0,1,.692.692ZM49.14,48.67H42.908a1.821,1.821,0,0,0-1.847,1.847v6.232A1.821,1.821,0,0,0,42.908,58.6H49.14a1.821,1.821,0,0,0,1.847-1.847V50.517A1.986,1.986,0,0,0,49.14,48.67Zm.692,8.079a.612.612,0,0,1-.692.692H42.908a.612.612,0,0,1-.692-.692V50.517a.612.612,0,0,1,.692-.692H49.14a.612.612,0,0,1,.692.692Zm-7.155-21V29.513a1.821,1.821,0,0,0-1.847-1.847H34.6a1.821,1.821,0,0,0-1.847,1.847v6.232A1.821,1.821,0,0,0,34.6,37.591h6.232A1.986,1.986,0,0,0,42.677,35.745Zm-1.154,0a.612.612,0,0,1-.692.692H34.6a.612.612,0,0,1-.692-.692V29.513a.612.612,0,0,1,.692-.692h6.232a.612.612,0,0,1,.692.692Zm-19.158,0V29.513a1.821,1.821,0,0,0-1.847-1.847H14.056a1.821,1.821,0,0,0-1.847,1.847v6.232a1.821,1.821,0,0,0,1.847,1.847h6.232A2.035,2.035,0,0,0,22.365,35.745Zm-1.154,0a.612.612,0,0,1-.692.692H14.056a1.04,1.04,0,0,1-.692-.692V29.513a.612.612,0,0,1,.692-.692h6.232a.612.612,0,0,1,.692.692v6.232ZM30.444,6.2H24.212a1.821,1.821,0,0,0-1.847,1.847v6.232a1.821,1.821,0,0,0,1.847,1.847h6.232a1.821,1.821,0,0,0,1.847-1.847v-6A1.767,1.767,0,0,0,30.444,6.2Zm.923,8.309a.612.612,0,0,1-.692.692H24.443a.612.612,0,0,1-.692-.692V8.277a.612.612,0,0,1,.692-.692h6.232a.612.612,0,0,1,.692.692ZM11.979,48.67H5.747A1.821,1.821,0,0,0,3.9,50.517v6.232A1.821,1.821,0,0,0,5.747,58.6h6.232a1.821,1.821,0,0,0,1.847-1.847V50.517C14.056,49.594,13.133,48.67,11.979,48.67Zm.923,8.079a.612.612,0,0,1-.692.692H5.747a.612.612,0,0,1-.692-.692V50.517a.612.612,0,0,1,.692-.692h6.232a.612.612,0,0,1,.692.692v6.232Z" transform="translate(2.563 5.572)"/><rect class="c" width="100" height="99" transform="translate(-19.818 -11)"/></g></svg>